<?xml version="1.0" standalone="no"?>
<!DOCTYPE svg PUBLIC "-//W3C//DTD SVG 20010904//EN"
 "http://www.w3.org/TR/2001/REC-SVG-20010904/DTD/svg10.dtd">
<svg version="1.0" xmlns="http://www.w3.org/2000/svg"
 width="50.000000pt" height="50.000000pt" viewBox="0 0 50.000000 50.000000"
 preserveAspectRatio="xMidYMid meet">

<g transform="translate(0.000000,50.000000) scale(0.100000,-0.100000)"
fill="#000000" stroke="none">
<path d="M118 453 c-8 -10 -39 -60 -68 -111 -41 -72 -51 -98 -44 -110 6 -10
34 -59 63 -110 l53 -92 128 0 128 0 58 102 c33 57 61 106 62 111 4 9 -92 181
-116 210 -13 14 -33 17 -132 17 -99 0 -119 -3 -132 -17z m211 -74 l72 -41 -3
-91 -3 -91 -65 -38 c-36 -21 -71 -38 -79 -38 -8 0 -45 18 -83 40 l-68 41 0 89
0 88 73 41 c39 22 75 41 79 41 3 0 38 -18 77 -41z"/>
<path d="M193 334 l-43 -26 0 -62 0 -61 50 -27 50 -28 50 28 50 27 0 62 0 61
-44 26 c-54 32 -60 32 -113 0z"/>
</g>
</svg>
