<svg xmlns="http://www.w3.org/2000/svg" width="66.667" height="66.667" version="1.0" viewBox="0 0 50 50"><path d="M11.8 4.7c-.8 1-3.9 6-6.8 11.1C.9 23-.1 25.6.6 26.8c.6 1 3.4 5.9 6.3 11l5.3 9.2h25.6l5.8-10.2c3.3-5.7 6.1-10.6 6.2-11.1.4-.9-9.2-18.1-11.6-21C36.9 3.3 34.9 3 25 3c-9.9 0-11.9.3-13.2 1.7zm21.1 7.4 7.2 4.1-.3 9.1-.3 9.1-6.5 3.8c-3.6 2.1-7.1 3.8-7.9 3.8-.8 0-4.5-1.8-8.3-4L10 33.9V16.2l7.3-4.1C21.2 9.9 24.8 8 25.2 8c.3 0 3.8 1.8 7.7 4.1z"/><path d="M19.3 16.6 15 19.2v12.3l5 2.7 5 2.8 5-2.8 5-2.7V19.2l-4.4-2.6c-5.4-3.2-6-3.2-11.3 0z"/></svg>