<?xml version="1.0" standalone="no"?>
<!DOCTYPE svg PUBLIC "-//W3C//DTD SVG 20010904//EN"
 "http://www.w3.org/TR/2001/REC-SVG-20010904/DTD/svg10.dtd">
<svg version="1.0" xmlns="http://www.w3.org/2000/svg"
 width="50.000000pt" height="50.000000pt" viewBox="0 0 50.000000 50.000000"
 preserveAspectRatio="xMidYMid meet">

<g transform="translate(0.000000,50.000000) scale(0.100000,-0.100000)"
fill="#000000" stroke="none">
<path d="M170 497 c0 -2 13 -43 30 -92 29 -85 29 -89 11 -101 -26 -18 -31 -48
-15 -80 11 -21 12 -30 2 -41 -16 -20 -64 -44 -72 -36 -12 13 -6 40 14 58 39
36 12 115 -40 115 -22 0 -70 -41 -70 -60 0 -6 5 -20 11 -31 8 -16 7 -30 -5
-60 -25 -63 -21 -96 18 -135 44 -44 75 -44 175 0 42 18 102 39 133 45 83 18
103 43 101 134 -1 60 -4 74 -23 89 l-22 18 30 90 31 90 -155 0 c-85 0 -154 -1
-154 -3z m243 -102 c-13 -41 -28 -75 -32 -75 -4 0 -18 24 -33 52 l-25 53 -27
-54 c-15 -29 -29 -51 -31 -49 -5 5 -55 136 -55 143 0 3 51 5 114 5 l115 0 -26
-75z m-68 -105 c-4 -11 -12 -20 -20 -20 -20 0 -27 34 -13 64 l12 27 13 -26 c8
-14 11 -35 8 -45z m-227 -9 c8 -4 12 -19 10 -32 -4 -29 -45 -34 -61 -7 -19 30
19 60 51 39z m161 -10 c13 -24 -8 -55 -34 -50 -28 6 -42 34 -26 53 18 22 48
20 60 -3z m151 -2 c9 -15 8 -24 -1 -35 -27 -33 -78 0 -58 38 13 24 46 23 59
-3z m-78 -54 c14 -18 29 -25 54 -25 69 0 21 -72 -57 -85 -24 -4 -78 -22 -120
-41 -94 -42 -130 -44 -158 -8 -24 30 -26 56 -10 103 13 37 29 41 29 8 0 -13 9
-32 21 -42 19 -18 21 -18 54 -1 19 10 44 29 56 42 12 13 30 24 40 24 10 0 26
11 36 25 23 31 30 31 55 0z"/>
</g>
</svg>
