<svg xmlns="http://www.w3.org/2000/svg" width="66.667" height="66.667" version="1.0" viewBox="0 0 50 50"><path d="M17 .3c0 .2 1.3 4.3 3 9.2 2.9 8.5 2.9 8.9 1.1 10.1-2.6 1.8-3.1 4.8-1.5 8 1.1 2.1 1.2 3 .2 4.1-1.6 2-6.4 4.4-7.2 3.6-1.2-1.3-.6-4 1.4-5.8 3.9-3.6 1.2-11.5-4-11.5-2.2 0-7 4.1-7 6 0 .6.5 2 1.1 3.1.8 1.6.7 3-.5 6-2.5 6.3-2.1 9.6 1.8 13.5 4.4 4.4 7.5 4.4 17.5 0 4.2-1.8 10.2-3.9 13.3-4.5 8.3-1.8 10.3-4.3 10.1-13.4-.1-6-.4-7.4-2.3-8.9L41.8 18l3-9 3.1-9H32.4C23.9 0 17 .1 17 .3zm24.3 10.2C40 14.6 38.5 18 38.1 18c-.4 0-1.8-2.4-3.3-5.2l-2.5-5.3-2.7 5.4c-1.5 2.9-2.9 5.1-3.1 4.9C26 17.3 21 4.2 21 3.5c0-.3 5.1-.5 11.4-.5h11.5l-2.6 7.5zM34.5 21c-.4 1.1-1.2 2-2 2-2 0-2.7-3.4-1.3-6.4l1.2-2.7 1.3 2.6c.8 1.4 1.1 3.5.8 4.5zm-22.7.9c.8.4 1.2 1.9 1 3.2-.4 2.9-4.5 3.4-6.1.7-1.9-3 1.9-6 5.1-3.9zm16.1 1c1.3 2.4-.8 5.5-3.4 5-2.8-.6-4.2-3.4-2.6-5.3 1.8-2.2 4.8-2 6 .3zm15.1.2c.9 1.5.8 2.4-.1 3.5-2.7 3.3-7.8 0-5.8-3.8 1.3-2.4 4.6-2.3 5.9.3zm-7.8 5.4c1.4 1.8 2.9 2.5 5.4 2.5 6.9 0 2.1 7.2-5.7 8.5-2.4.4-7.8 2.2-12 4.1-9.4 4.2-13 4.4-15.8.8-2.4-3-2.6-5.6-1-10.3C7.4 30.4 9 30 9 33.3c0 1.3.9 3.2 2.1 4.2 1.9 1.8 2.1 1.8 5.4.1 1.9-1 4.4-2.9 5.6-4.2 1.2-1.3 3-2.4 4-2.4s2.6-1.1 3.6-2.5c2.3-3.1 3-3.1 5.5 0z"/></svg>