<svg xmlns="http://www.w3.org/2000/svg" width="50" height="50" viewBox="0 0 64 64"><path d="M31.88 3a28.87 28.87 0 0 0-12.55 2.92A28.98 28.98 0 0 0 4.607 22.512C-.637 37.638 7.375 54.15 22.502 59.392c15.127 5.244 31.639-2.768 36.883-17.894a28.792 28.792 0 0 0-1.32-22.176C53.036 8.974 42.663 2.965 31.88 3zm-.347 1.986c3.08-.053 6.223.425 9.303 1.493A26.986 26.986 0 0 1 57.494 40.81c-4.88 14.08-20.25 21.538-34.332 16.658-14.08-4.88-21.538-20.251-16.658-34.332 3.812-11.001 14.028-17.96 25.03-18.15zm.106 3.332c-.835-.012-1.67.022-2.502.1a.998.998 0 1 0 .066 1.996.999.999 0 0 0 2.436-2.096zm-6.586.924a1.004 1.004 0 0 0-.397.037A23.063 23.063 0 0 0 9.598 23.73a1 1 0 1 0 1.886.659l-.035.035a21.072 21.072 0 0 1 13.781-13.23.999.999 0 0 0-.177-1.952zm19.884 5.508a4.31 4.31 0 0 0-4.31 4.313 4.313 4.313 0 0 0 4.31 4.314 4.28 4.28 0 0 0 1.725-.365l-3.164-3.27a.347.347 0 0 1 .02-.504l4.017-3.597a4.272 4.272 0 0 0-2.597-.891zm3.126 1.355-3.81 3.413 3.046 3.146a4.3 4.3 0 0 0 1.949-3.602 4.288 4.288 0 0 0-1.185-2.957zm-.08 2.047a.347.347 0 0 1 .331.192c.018.037.446.918-.127 2.062a.348.348 0 0 1-.468.157.348.348 0 0 1-.157-.47c.41-.816.137-1.416.126-1.44a.35.35 0 0 1 .294-.5zm-8.575 3.506c-.643.028-1.373.184-2.158.467-3.125 1.125-6.875 5.25-6.875 5.25l-3.008 3.488 2.469 2.426 11.209-11.326c-.438-.231-.994-.333-1.637-.305zm2.194.738L30.334 33.781l1.455 1.432 8.461-8.582c.025-.024 1.85-1.825 1.76-3.424a1.99 1.99 0 0 0-.408-.81zm.17 3.481a8.87 8.87 0 0 1-1.03 1.25l-8.455 8.574 1.123 1.106c.114-.104.224-.201.338-.307 6.093-5.65 7.375-8.06 8.023-10.623zm-14.864 5.518-2.783 3.23 5.104-.95-2.32-2.28zm2.813 2.763-1.758 1.82 3.121-.48-1.363-1.34zm1.984 1.953-4.545.7-8.332 8.623 3.496 3.437.176.004-.875-3.625s4.82-2.19 11.268-7.975l-1.188-1.164zm20.037 1.01a1 1 0 0 0-.12 1.938l1.93.515a1 1 0 0 0 .516-1.93l-1.927-.515a1.005 1.005 0 0 0-.399-.008zm-1.699 4.707a1 1 0 0 0-.615 1.844l1.73.996a1.005 1.005 0 0 0 .996-1.746l-1.73-.98a.998.998 0 0 0-.381-.114zm-3.211 4.004a.998.998 0 0 0-.705 1.705l1.412 1.414a.998.998 0 1 0 1.412-1.414l-1.412-1.412a.998.998 0 0 0-.707-.293zm-28.49.105-2.717 2.813 5.684.104-2.967-2.916zm24.328 3a1.002 1.002 0 0 0-.734 1.492l.99 1.723a.997.997 0 1 0 1.764-.936l-.034-.06-.996-1.73a1.002 1.002 0 0 0-.99-.489zm-4.434 1.95a.988.988 0 0 0-.394.021h-.004a1.001 1.001 0 0 0-.71 1.225l.003.006.515 1.93a.999.999 0 0 0 1.93-.516l-.515-1.93a1 1 0 0 0-.825-.736z"/></svg>